<svg id="Layer_1" data-name="Layer 1" xmlns="http://www.w3.org/2000/svg" viewBox="0 0 428.03 229.99"><defs><style>.cls-1{fill:#fff;}</style></defs><path class="cls-1" d="M630.09,391.2h-428v-230h428ZM220.25,373H611.9V179.4H220.25Z" transform="translate(-202.06 -161.21)"/><path class="cls-1" d="M281.11,198.45H298.2v56.81H287.13V216.83c0-1.1,0-2.65,0-4.64s0-3.53,0-4.61l-10.77,47.68H264.91l-10.69-47.68c0,1.08,0,2.62,0,4.61s0,3.54,0,4.64v38.43H243.23V198.45h17.28l10.34,44.67Z" transform="translate(-202.06 -161.21)"/><path class="cls-1" d="M335.67,214.1a17.07,17.07,0,0,1,7.26,6.21,20.66,20.66,0,0,1,3.35,8.69,53.74,53.74,0,0,1,.36,8.34H316q.25,6.32,4.4,8.86a11.15,11.15,0,0,0,6.05,1.58,9.27,9.27,0,0,0,6.1-1.93,9,9,0,0,0,2.26-2.89h11.22q-.45,3.75-4.08,7.6-5.64,6.12-15.8,6.12a22.93,22.93,0,0,1-14.8-5.16Q305,246.34,305,234.7q0-10.92,5.79-16.75t15-5.82A23.78,23.78,0,0,1,335.67,214.1Zm-16.43,9.49a11.45,11.45,0,0,0-2.93,6.5h18.93a9.17,9.17,0,0,0-2.93-6.64,9.61,9.61,0,0,0-6.51-2.26A8.7,8.7,0,0,0,319.24,223.59Z" transform="translate(-202.06 -161.21)"/><path class="cls-1" d="M374.47,213.92a13.39,13.39,0,0,1,4.82,4.64v-20h11.14v56.74H379.75v-5.82a15.57,15.57,0,0,1-5.35,5.44,15.08,15.08,0,0,1-7.48,1.69,15.63,15.63,0,0,1-12.39-5.95q-5-6-5-15.29,0-10.76,4.95-16.92a16.12,16.12,0,0,1,13.24-6.17A13.5,13.5,0,0,1,374.47,213.92Zm2.7,29.93a15.32,15.32,0,0,0,2.43-9q0-7.71-3.89-11a8.43,8.43,0,0,0-5.55-2,7.75,7.75,0,0,0-7.08,3.64,16.93,16.93,0,0,0-2.25,9q0,5.82,2.29,9.31a7.76,7.76,0,0,0,7,3.49A8.11,8.11,0,0,0,377.17,243.85Z" transform="translate(-202.06 -161.21)"/><path class="cls-1" d="M411.71,208.24H400.57V198.1h11.14Zm-11.14,5h11.14v42H400.57Z" transform="translate(-202.06 -161.21)"/><path class="cls-1" d="M439,229.7a17.09,17.09,0,0,0,4.39-1,3.31,3.31,0,0,0,2.36-3.12,3.7,3.7,0,0,0-1.81-3.57,11.6,11.6,0,0,0-5.34-1q-3.94,0-5.58,1.93a7.94,7.94,0,0,0-1.57,3.85h-10.6a16.19,16.19,0,0,1,3.1-9.06q4.38-5.55,15-5.55A26.84,26.84,0,0,1,451.27,215q5.39,2.75,5.38,10.33v19.27c0,1.34,0,3,.08,4.86a6,6,0,0,0,.65,2.93,3.94,3.94,0,0,0,1.62,1.27v1.62H447.05a12.76,12.76,0,0,1-.69-2.39c-.13-.74-.23-1.59-.31-2.54a22.78,22.78,0,0,1-5.27,4.2,16,16,0,0,1-8.06,2,13.91,13.91,0,0,1-9.48-3.26q-3.75-3.26-3.75-9.23,0-7.74,6-11.21,3.3-1.89,9.71-2.7Zm6.71,5.13a11.74,11.74,0,0,1-2.13,1.06,17.56,17.56,0,0,1-2.94.75l-2.51.47a16.57,16.57,0,0,0-5.05,1.5,5,5,0,0,0-2.59,4.66,4.87,4.87,0,0,0,1.59,4.07,6,6,0,0,0,3.85,1.25,11.45,11.45,0,0,0,6.63-2.08c2-1.39,3.07-3.92,3.15-7.59Z" transform="translate(-202.06 -161.21)"/><path class="cls-1" d="M243.42,293.25h40.51v10H255.22V316.3h25.17v9.86H255.22V350h-11.8Z" transform="translate(-202.06 -161.21)"/><path class="cls-1" d="M301.7,308V333.3a13.14,13.14,0,0,0,.85,5.39c1,2.13,2.95,3.2,5.86,3.2q5.61,0,7.67-4.55a16.41,16.41,0,0,0,1.08-6.51V308H328.3v42H317.62v-5.93c-.1.13-.36.51-.77,1.16a7.63,7.63,0,0,1-1.46,1.69,15.14,15.14,0,0,1-5,3.16,16.8,16.8,0,0,1-5.63.85q-9.3,0-12.53-6.71-1.8-3.69-1.8-10.9V308Z" transform="translate(-202.06 -161.21)"/><path class="cls-1" d="M334.66,316.18v-7.82h5.86V296.64h10.87v11.72h6.82v7.82h-6.82v22.2c0,1.72.22,2.8.65,3.22s1.78.64,4,.64l1.06,0c.37,0,.74,0,1.1-.06v8.21l-5.2.19q-7.8.27-10.64-2.7c-1.24-1.25-1.85-3.19-1.85-5.82V316.18Z" transform="translate(-202.06 -161.21)"/><path class="cls-1" d="M376.21,308V333.3a13.34,13.34,0,0,0,.84,5.39q1.5,3.19,5.87,3.2,5.59,0,7.67-4.55a16.41,16.41,0,0,0,1.08-6.51V308H402.8v42H392.13v-5.93c-.1.13-.36.51-.77,1.16a7.9,7.9,0,0,1-1.46,1.69,15.24,15.24,0,0,1-5,3.16,16.8,16.8,0,0,1-5.63.85q-9.3,0-12.53-6.71-1.8-3.69-1.8-10.9V308Z" transform="translate(-202.06 -161.21)"/><path class="cls-1" d="M436.82,307l.94.06V318.3c-.69-.07-1.31-.13-1.85-.15s-1,0-1.31,0q-6.63,0-8.9,4.32-1.27,2.43-1.27,7.47V350H413.36V308h10.49v7.32a23.34,23.34,0,0,1,4.43-5.74,12.09,12.09,0,0,1,8-2.58Z" transform="translate(-202.06 -161.21)"/><path class="cls-1" d="M471.58,308.82a17.22,17.22,0,0,1,7.26,6.22,20.61,20.61,0,0,1,3.34,8.68,53.49,53.49,0,0,1,.37,8.34H452q.26,6.33,4.39,8.87a11.21,11.21,0,0,0,6.06,1.58,8.54,8.54,0,0,0,8.36-4.82H482q-.44,3.74-4.07,7.59-5.64,6.14-15.81,6.13a22.9,22.9,0,0,1-14.8-5.17q-6.41-5.16-6.41-16.82,0-10.91,5.79-16.74t15-5.82A24,24,0,0,1,471.58,308.82Zm-16.44,9.49a11.38,11.38,0,0,0-2.92,6.51h18.92a9.2,9.2,0,0,0-2.92-6.64,9.66,9.66,0,0,0-6.52-2.27A8.72,8.72,0,0,0,455.14,318.31Z" transform="translate(-202.06 -161.21)"/><path class="cls-1" d="M496.62,336.57a7.36,7.36,0,0,0,1.51,4.17q2.06,2.19,7.59,2.19a11.66,11.66,0,0,0,5.17-1,3.09,3.09,0,0,0,1.92-2.89,3.13,3.13,0,0,0-1.55-2.82c-1-.64-4.86-1.74-11.49-3.31q-7.15-1.77-10.09-4.43T486.75,321a13.1,13.1,0,0,1,4.58-10q4.57-4.18,12.88-4.18,7.89,0,12.85,3.14t5.69,10.85h-11a6.47,6.47,0,0,0-1.2-3.35c-1.21-1.5-3.27-2.24-6.19-2.24q-3.58,0-5.12,1.12a3.22,3.22,0,0,0-1.52,2.62,2.85,2.85,0,0,0,1.62,2.73q1.62.89,11.47,3.05,6.57,1.55,9.84,4.67a10.56,10.56,0,0,1,3.24,7.89,12.73,12.73,0,0,1-4.66,10.2q-4.65,4-14.38,4-9.93,0-14.66-4.18a13.61,13.61,0,0,1-4.73-10.66Z" transform="translate(-202.06 -161.21)"/><circle class="cls-1" cx="356.01" cy="172.74" r="16.33"/></svg>